<svg width="500" height="500" viewBox="0 0 500 500" fill="none" xmlns="http://www.w3.org/2000/svg">
<path d="M334.375 165.625H306.25V193.75H334.375V165.625Z" fill="#845137"/>
<path d="M390.625 165.625H362.5V193.75C378.033 193.75 390.625 181.158 390.625 165.625Z" fill="#845137"/>
<path d="M193.75 221.875H165.625V250H193.75V221.875Z" fill="#8F563B"/>
<path d="M278.125 250H250C250 265.533 262.592 278.125 278.125 278.125V250Z" fill="#845137"/>
<path d="M334.375 250H306.25V278.125H334.375V250Z" fill="#975E3F"/>
<path d="M250 334.375V306.25C234.467 306.25 221.875 318.842 221.875 334.375H250Z" fill="#975E3F"/>
<path d="M334.375 334.375H306.25V362.5C321.783 362.5 334.375 349.908 334.375 334.375Z" fill="#845137"/>
<path d="M221.875 53.125C206.342 53.125 193.75 65.717 193.75 81.25H165.625C150.092 81.25 137.5 93.842 137.5 109.375V137.5V151.562C137.5 159.329 143.796 165.625 151.562 165.625C159.329 165.625 165.625 159.329 165.625 151.562V137.5C165.625 137.5 165.625 123.438 179.688 123.438C193.75 123.438 193.75 137.5 193.75 137.5V165.625V193.75V221.875V250V278.125V292.188C193.75 299.954 200.046 306.25 207.812 306.25C215.579 306.25 221.875 299.954 221.875 292.188V278.125V250V221.875V193.75V165.625V137.5C221.875 121.967 234.467 109.375 250 109.375C265.533 109.375 278.125 121.967 278.125 137.5V165.625V193.75V221.875V250V278.125V306.25V334.375V362.5V376.625V390.625V404.688C278.125 412.454 284.421 418.75 292.188 418.75C299.954 418.75 306.25 412.454 306.25 404.688V390.625V362.5V334.375V306.25V278.125V250V221.875V193.75V165.625C306.25 165.625 306.25 151.562 320.312 151.562C334.375 151.562 334.375 165.625 334.375 165.625V193.75V207.812C334.375 215.579 340.671 221.875 348.438 221.875C356.204 221.875 362.5 215.579 362.5 207.812V193.75V165.625C362.5 150.092 375.092 137.5 390.625 137.5C406.158 137.5 418.75 150.092 418.75 165.625V193.75V221.875V235.938C418.75 243.704 425.046 250 432.812 250C440.579 250 446.875 243.704 446.875 235.938V221.875V193.75V165.625V137.5V132.375C446.875 119.672 436.578 109.375 423.875 109.375H418.75H390.625V103.25C390.625 91.0997 380.775 81.25 368.625 81.25H362.5C362.5 65.717 349.908 53.125 334.375 53.125C318.842 53.125 306.25 65.717 306.25 81.25H278.125C278.125 65.717 265.533 53.125 250 53.125H221.875Z" fill="#BB93F7"/>
<path d="M390.625 193.75C375.092 193.75 362.5 206.342 362.5 221.875C346.967 221.875 334.375 234.467 334.375 250V278.125V306.25V334.375V362.5V376.562C334.375 384.329 340.671 390.625 348.438 390.625C356.204 390.625 362.5 384.329 362.5 376.562V362.5V334.375V306.25V278.125C362.5 278.125 362.5 264.062 376.562 264.062C381.442 264.062 384.628 265.756 386.709 267.967C390.625 272.128 390.625 278.125 390.625 278.125V306.25V320.312C390.625 328.079 396.921 334.375 404.688 334.375C412.454 334.375 418.75 328.079 418.75 320.312V306.25C418.75 306.25 418.75 292.188 432.812 292.188C446.875 292.188 446.875 306.25 446.875 306.25V334.375V362.5V376.562C446.875 384.329 453.171 390.625 460.938 390.625C468.704 390.625 475 384.329 475 376.562V362.5V334.375V306.25V278.125V250C475 234.467 462.408 221.875 446.875 221.875V235.938C446.875 243.704 440.579 250 432.812 250C425.046 250 418.75 243.704 418.75 235.938V221.875C418.75 206.342 406.158 193.75 390.625 193.75Z" fill="#A879EF"/>
<path d="M362.5 165.625H390.625H418.75C418.75 150.092 406.158 137.5 390.625 137.5C375.092 137.5 362.5 150.092 362.5 165.625Z" fill="#945EE6"/>
<path d="M306.25 165.625H334.375C334.375 165.625 334.375 151.562 320.312 151.562C306.25 151.562 306.25 165.625 306.25 165.625Z" fill="#945EE6"/>
<path d="M221.875 137.5H250C265.533 137.5 278.125 150.092 278.125 165.625V137.5C278.125 121.967 265.533 109.375 250 109.375C234.467 109.375 221.875 121.967 221.875 137.5Z" fill="#A879EF"/>
<path d="M165.625 137.5H193.75C193.75 137.5 193.75 123.438 179.688 123.438C165.625 123.438 165.625 137.5 165.625 137.5Z" fill="#A879EF"/>
<path d="M250 137.5C250 153.033 262.592 165.625 278.125 165.625C278.125 150.092 265.533 137.5 250 137.5Z" fill="#945EE6"/>
<path d="M221.875 165.625V193.75H250C234.467 193.75 221.875 181.158 221.875 165.625Z" fill="#945EE6"/>
<path d="M250 137.5H221.875V165.625H250H278.125C262.592 165.625 250 153.033 250 137.5Z" fill="#784C32"/>
<path d="M250 165.625H221.875C221.875 181.158 234.467 193.75 250 193.75H278.125V165.625H250Z" fill="#845137"/>
<path d="M278.125 193.75H250V221.875H221.875V250H250H278.125V221.875V193.75Z" fill="#8F563B"/>
<path d="M362.5 278.125H367.625C375.572 278.125 382.577 274.095 386.709 267.967C384.628 265.756 381.442 264.062 376.562 264.062C362.5 264.062 362.5 278.125 362.5 278.125Z" fill="#845137"/>
<path d="M53.125 306.25V278.125C37.592 278.125 25 290.717 25 306.25V334.375V362.5V376.562C25 384.329 31.296 390.625 39.0625 390.625C46.829 390.625 53.125 384.329 53.125 376.562V362.5V334.375V306.25Z" fill="#A879EF"/>
<path d="M109.375 250C93.9063 250 81.3542 237.512 81.2506 222.068C81.1834 232.398 75.5468 241.406 67.193 246.241C71.3285 248.632 76.1295 250 81.25 250V278.125V306.25V320.312C81.25 328.079 87.546 334.375 95.3125 334.375C103.079 334.375 109.375 328.079 109.375 320.312V306.25V278.125V250Z" fill="#945EE6"/>
<path d="M81.25 165.625C65.717 165.625 53.125 178.217 53.125 193.75C37.592 193.75 25 206.342 25 221.875V250V278.125V306.25C25 290.717 37.592 278.125 53.125 278.125V250.006C58.25 250.006 63.0548 248.635 67.193 246.241C75.5468 241.406 81.1834 232.398 81.2506 222.068C81.2502 222.003 81.25 221.939 81.25 221.875C81.25 214.108 84.398 207.077 89.4876 201.988C94.5772 196.898 101.608 193.75 109.375 193.75C124.908 193.75 137.5 206.342 137.5 221.875H165.625C165.625 206.342 153.033 193.75 137.5 193.75C137.5 178.217 124.908 165.625 109.375 165.625H81.25Z" fill="#BB93F7"/>
<path d="M165.625 221.875H137.5V250V278.125V292.188C137.5 299.954 143.796 306.25 151.562 306.25C159.329 306.25 165.625 299.954 165.625 292.188V278.125V250V221.875Z" fill="#A879EF"/>
<path d="M109.375 221.875H81.25C81.25 221.939 81.2502 222.003 81.2506 222.068C81.3542 237.512 93.9063 250 109.375 250H137.5V221.875H109.375Z" fill="#845137"/>
<path fill-rule="evenodd" clip-rule="evenodd" d="M137.5 221.875H109.375C97.549 217.283 92.5168 213.457 89.4876 201.988C94.5772 196.898 101.608 193.75 109.375 193.75C124.908 193.75 137.5 206.342 137.5 221.875Z" fill="#A879EF"/>
<path d="M81.25 221.875H109.375C97.549 217.283 92.5168 213.457 89.4876 201.988C84.398 207.077 81.25 214.108 81.25 221.875Z" fill="#8F563B"/>
<path d="M250 390.625H221.875V418.75H193.75V446.875H221.875H250H278.125V438.75C278.125 427.704 269.171 418.75 258.125 418.75H250V390.625Z" fill="#845137"/>
<path d="M250 306.25V334.375H221.875V362.5H193.75H165.625C150.092 362.5 137.5 375.092 137.5 390.625H165.625V418.75V446.875H193.75V418.75H221.875V390.625H250H264.125C271.857 390.625 278.125 384.357 278.125 376.625V362.5V334.375V306.25H250Z" fill="#8F563B"/>
<path d="M334.375 278.125H306.25V306.25V334.375H334.375V306.25V278.125Z" fill="#8F563B"/>
<path d="M165.625 390.625H137.5V418.75C121.967 418.75 109.375 431.342 109.375 446.875H137.5H165.625V418.75V390.625Z" fill="#975E3F"/>
<path d="M165.625 362.5H193.75H221.875V334.375H193.75C178.217 334.375 165.625 346.967 165.625 362.5Z" fill="#975E3F"/>
</svg>
