<svg width="514" height="87" viewBox="0 0 514 87" fill="none" xmlns="http://www.w3.org/2000/svg">
<path d="M24.4733 85L0.28125 0.519997H28.4413L40.3453 64.264L53.6573 0.519997H76.6973L90.6493 63.88L102.297 0.519997H129.433L105.241 85H77.0813L68.8893 48.904L65.4333 27.784H65.0493L61.5933 48.904L53.4013 85H24.4733ZM214.395 0.519997V49.544C214.395 61.832 211.11 71.048 204.539 77.192C197.969 83.2507 188.155 86.28 175.099 86.28C161.958 86.28 152.102 83.2507 145.531 77.192C138.961 71.048 135.675 61.832 135.675 49.544V0.519997H161.915V50.952C161.915 56.072 163.025 59.912 165.243 62.472C167.462 65.032 170.747 66.312 175.099 66.312C179.451 66.312 182.737 65.032 184.955 62.472C187.174 59.912 188.283 56.072 188.283 50.952V0.519997H214.395ZM254.451 0.519997V85H228.339V0.519997H254.451ZM322.377 68.968C321.161 72.488 319.337 75.528 316.905 78.088C314.537 80.648 311.657 82.6 308.265 83.944C304.937 85.288 301.193 85.96 297.033 85.96C291.273 85.96 286.217 84.648 281.865 82.024C277.577 79.336 274.217 75.56 271.785 70.696C269.417 65.832 268.233 60.04 268.233 53.32C268.233 46.6 269.417 40.808 271.785 35.944C274.153 31.08 277.481 27.336 281.769 24.712C286.121 22.024 291.177 20.68 296.937 20.68C301.225 20.68 304.969 21.288 308.169 22.504C311.433 23.656 314.185 25.416 316.425 27.784C318.665 30.088 320.361 32.936 321.513 36.328L316.809 38.536C315.337 34.12 313.001 30.792 309.801 28.552C306.601 26.248 302.409 25.096 297.225 25.096C292.489 25.096 288.297 26.248 284.649 28.552C281.065 30.792 278.249 34.024 276.201 38.248C274.217 42.408 273.225 47.432 273.225 53.32C273.225 59.144 274.217 64.168 276.201 68.392C278.185 72.616 280.969 75.88 284.553 78.184C288.137 80.424 292.297 81.544 297.033 81.544C302.153 81.544 306.505 80.328 310.089 77.896C313.673 75.4 316.169 71.816 317.577 67.144L322.377 68.968ZM361.636 20.68C367.652 20.68 372.836 22.024 377.188 24.712C381.54 27.336 384.9 31.08 387.268 35.944C389.636 40.808 390.82 46.6 390.82 53.32C390.82 60.04 389.636 65.832 387.268 70.696C384.9 75.56 381.54 79.336 377.188 82.024C372.836 84.648 367.652 85.96 361.636 85.96C355.684 85.96 350.5 84.648 346.084 82.024C341.732 79.336 338.372 75.56 336.004 70.696C333.636 65.832 332.452 60.04 332.452 53.32C332.452 46.6 333.636 40.808 336.004 35.944C338.372 31.08 341.732 27.336 346.084 24.712C350.5 22.024 355.684 20.68 361.636 20.68ZM361.636 25.096C356.708 25.096 352.42 26.248 348.772 28.552C345.188 30.792 342.404 34.024 340.42 38.248C338.436 42.472 337.444 47.496 337.444 53.32C337.444 59.144 338.436 64.168 340.42 68.392C342.404 72.616 345.188 75.88 348.772 78.184C352.42 80.424 356.708 81.544 361.636 81.544C366.628 81.544 370.916 80.424 374.5 78.184C378.084 75.88 380.868 72.616 382.852 68.392C384.836 64.168 385.828 59.144 385.828 53.32C385.828 47.496 384.836 42.472 382.852 38.248C380.868 34.024 378.084 30.792 374.5 28.552C370.916 26.248 366.628 25.096 361.636 25.096ZM430.317 21.64C436.653 21.64 441.677 23.24 445.389 26.44C449.165 29.64 451.052 34.024 451.052 39.592C451.052 45.16 449.165 49.512 445.389 52.648C441.613 55.72 436.557 57.256 430.221 57.256L429.741 57.544H411.597V85H406.797V21.64H430.317ZM430.221 53.032C435.341 53.032 439.245 51.88 441.933 49.576C444.685 47.272 446.061 43.944 446.061 39.592C446.061 35.24 444.685 31.912 441.933 29.608C439.245 27.24 435.341 26.056 430.221 26.056H411.597V53.032H430.221ZM433.965 53.896L454.413 85H448.749L429.933 56.584L433.965 53.896ZM468.203 85V21.64H511.499V26.056H473.003V50.536H503.435V55.048H473.003V80.584H513.035V85H468.203Z" fill="#FCFCFC"/>
</svg>
