<svg width="609" height="188" viewBox="0 0 609 188" fill="none" xmlns="http://www.w3.org/2000/svg">
<path d="M24.7858 133L0.59375 48.52H28.7538L40.6578 112.264L53.9698 48.52H77.0098L90.9618 111.88L102.61 48.52H129.746L105.554 133H77.3938L69.2018 96.904L65.7458 75.784H65.3618L61.9058 96.904L53.7138 133H24.7858ZM214.708 48.52V97.544C214.708 109.832 211.422 119.048 204.852 125.192C198.281 131.251 188.468 134.28 175.412 134.28C162.27 134.28 152.414 131.251 145.844 125.192C139.273 119.048 135.988 109.832 135.988 97.544V48.52H162.228V98.952C162.228 104.072 163.337 107.912 165.556 110.472C167.774 113.032 171.06 114.312 175.412 114.312C179.764 114.312 183.049 113.032 185.268 110.472C187.486 107.912 188.596 104.072 188.596 98.952V48.52H214.708ZM254.764 48.52V133H228.652V48.52H254.764ZM292.546 69.64C302.658 69.64 310.434 72.328 315.874 77.704C321.378 83.016 324.13 90.728 324.13 100.84C324.13 111.272 321.378 119.24 315.874 124.744C310.434 130.248 302.658 133 292.546 133H272.578V69.64H292.546ZM292.93 128.584C301.378 128.584 307.842 126.184 312.322 121.384C316.866 116.584 319.138 109.736 319.138 100.84C319.138 92.264 316.866 85.672 312.322 81.064C307.842 76.392 301.378 74.056 292.93 74.056H277.378V128.584H292.93ZM340.078 133V69.64H383.374V74.056H344.878V98.536H375.31V103.048H344.878V128.584H384.91V133H340.078ZM418.443 68.68C424.267 68.68 429.163 69.832 433.131 72.136C437.163 74.44 440.235 77.96 442.347 82.696L438.315 85.768C436.459 81.288 433.835 78.056 430.443 76.072C427.115 74.088 422.987 73.096 418.059 73.096C414.283 73.096 411.083 73.704 408.459 74.92C405.835 76.072 403.819 77.64 402.411 79.624C401.067 81.544 400.395 83.72 400.395 86.152C400.395 89.096 401.355 91.528 403.275 93.448C405.195 95.368 408.715 96.904 413.835 98.056L426.315 100.744C432.523 102.088 436.875 104.04 439.371 106.6C441.931 109.096 443.211 112.328 443.211 116.296C443.211 119.752 442.187 122.824 440.139 125.512C438.155 128.2 435.403 130.28 431.883 131.752C428.363 133.224 424.235 133.96 419.499 133.96C414.955 133.96 410.891 133.352 407.307 132.136C403.787 130.856 400.811 129.096 398.379 126.856C395.947 124.552 394.155 121.8 393.003 118.6L397.227 115.336C398.123 118.344 399.595 120.936 401.643 123.112C403.755 125.224 406.347 126.824 409.419 127.912C412.491 129 415.915 129.544 419.691 129.544C423.275 129.544 426.475 129.064 429.291 128.104C432.107 127.08 434.283 125.608 435.819 123.688C437.419 121.768 438.219 119.4 438.219 116.584C438.219 113.896 437.259 111.624 435.339 109.768C433.483 107.912 430.155 106.504 425.355 105.544L412.299 102.664C408.267 101.768 405.003 100.584 402.507 99.112C400.011 97.64 398.187 95.88 397.035 93.832C395.947 91.72 395.403 89.352 395.403 86.728C395.403 83.464 396.331 80.488 398.187 77.8C400.043 75.048 402.699 72.84 406.155 71.176C409.611 69.512 413.707 68.68 418.443 68.68ZM463.097 69.64V133H458.297V69.64H463.097ZM508.103 133.96C502.151 133.96 496.999 132.648 492.647 130.024C488.295 127.336 484.935 123.56 482.567 118.696C480.199 113.832 479.015 108.04 479.015 101.32C479.015 94.6 480.231 88.808 482.663 83.944C485.159 79.08 488.583 75.336 492.935 72.712C497.351 70.024 502.439 68.68 508.199 68.68C514.663 68.68 519.879 69.96 523.847 72.52C527.879 75.08 530.919 78.984 532.967 84.232L528.551 86.536C527.079 82.12 524.647 78.792 521.255 76.552C517.863 74.248 513.511 73.096 508.199 73.096C503.399 73.096 499.175 74.248 495.527 76.552C491.943 78.792 489.127 82.024 487.079 86.248C485.031 90.472 484.007 95.496 484.007 101.32C484.007 107.144 484.967 112.168 486.887 116.392C488.807 120.616 491.559 123.88 495.143 126.184C498.791 128.424 503.175 129.544 508.295 129.544C511.815 129.544 514.855 129 517.415 127.912C520.039 126.76 522.183 125.288 523.847 123.496C525.575 121.64 526.855 119.56 527.687 117.256C528.519 114.888 528.935 112.488 528.935 110.056V106.504H507.431V101.992H533.447V133H529.51L529.319 119.272L530.183 119.464C528.647 123.944 525.991 127.496 522.215 130.12C518.503 132.68 513.799 133.96 508.103 133.96ZM599.031 69.64V133H593.079L559.479 83.272L554.775 75.112H554.679L554.967 82.792V133H550.359V69.64H556.407L589.911 119.272L594.711 127.528L594.519 119.848V69.64H599.031Z" fill="#141414"/>
<path d="M23.44 180.256C21.392 180.256 19.7067 179.904 18.384 179.2C17.0613 178.496 16.0587 177.589 15.376 176.48L17.296 174.72C17.7867 175.765 18.5653 176.587 19.632 177.184C20.6987 177.76 22.0107 178.048 23.568 178.048C24.5493 178.048 25.3813 177.952 26.064 177.76C26.768 177.547 27.3013 177.248 27.664 176.864C28.048 176.459 28.24 175.957 28.24 175.36C28.24 174.869 28.1013 174.453 27.824 174.112C27.568 173.771 27.2053 173.483 26.736 173.248C26.288 173.013 25.7653 172.843 25.168 172.736L21.264 171.936C20.3467 171.744 19.4933 171.477 18.704 171.136C17.9147 170.795 17.2747 170.315 16.784 169.696C16.3147 169.056 16.08 168.224 16.08 167.2C16.08 166.219 16.368 165.323 16.944 164.512C17.52 163.701 18.3413 163.051 19.408 162.56C20.496 162.069 21.7867 161.824 23.28 161.824C24.4533 161.824 25.4987 161.963 26.416 162.24C27.3333 162.496 28.144 162.901 28.848 163.456C29.552 164.011 30.16 164.704 30.672 165.536L28.752 167.264C28.368 166.496 27.92 165.877 27.408 165.408C26.9173 164.917 26.3307 164.565 25.648 164.352C24.9867 164.139 24.1867 164.032 23.248 164.032C21.7973 164.032 20.6667 164.331 19.856 164.928C19.0453 165.525 18.64 166.229 18.64 167.04C18.64 167.552 18.768 167.968 19.024 168.288C19.3013 168.608 19.6747 168.875 20.144 169.088C20.6347 169.28 21.1787 169.44 21.776 169.568L25.936 170.432C26.8107 170.603 27.6107 170.869 28.336 171.232C29.0827 171.595 29.68 172.085 30.128 172.704C30.576 173.301 30.8 174.08 30.8 175.04C30.8 176.107 30.4907 177.035 29.872 177.824C29.2533 178.613 28.3893 179.221 27.28 179.648C26.192 180.053 24.912 180.256 23.44 180.256ZM61.1407 180.256C59.3274 180.256 57.7594 179.883 56.4367 179.136C55.1141 178.389 54.0901 177.333 53.3647 175.968C52.6607 174.581 52.3087 172.939 52.3087 171.04C52.3087 169.141 52.6607 167.509 53.3647 166.144C54.0901 164.757 55.1141 163.691 56.4367 162.944C57.7594 162.197 59.3274 161.824 61.1407 161.824C62.9541 161.824 64.5221 162.197 65.8447 162.944C67.1674 163.691 68.1807 164.757 68.8847 166.144C69.6101 167.509 69.9727 169.141 69.9727 171.04C69.9727 172.939 69.6101 174.581 68.8847 175.968C68.1807 177.333 67.1674 178.389 65.8447 179.136C64.5221 179.883 62.9541 180.256 61.1407 180.256ZM61.1407 178.048C62.4207 178.048 63.5301 177.771 64.4687 177.216C65.4074 176.661 66.1327 175.861 66.6447 174.816C67.1567 173.771 67.4127 172.512 67.4127 171.04C67.4127 169.568 67.1567 168.309 66.6447 167.264C66.1327 166.219 65.4074 165.419 64.4687 164.864C63.5301 164.309 62.4207 164.032 61.1407 164.032C59.8607 164.032 58.7514 164.309 57.8127 164.864C56.8741 165.419 56.1487 166.219 55.6367 167.264C55.1247 168.309 54.8687 169.568 54.8687 171.04C54.8687 172.512 55.1247 173.771 55.6367 174.816C56.1487 175.861 56.8741 176.661 57.8127 177.216C58.7514 177.771 59.8607 178.048 61.1407 178.048ZM125.771 173.12L119.051 162.08H121.963L125.451 168.096L127.051 170.944L128.683 168.096L132.171 162.08H135.051L128.331 173.12V180H125.771V173.12ZM163.526 180.256C161.712 180.256 160.144 179.883 158.822 179.136C157.499 178.389 156.475 177.333 155.75 175.968C155.046 174.581 154.694 172.939 154.694 171.04C154.694 169.141 155.046 167.509 155.75 166.144C156.475 164.757 157.499 163.691 158.822 162.944C160.144 162.197 161.712 161.824 163.526 161.824C165.339 161.824 166.907 162.197 168.23 162.944C169.552 163.691 170.566 164.757 171.27 166.144C171.995 167.509 172.358 169.141 172.358 171.04C172.358 172.939 171.995 174.581 171.27 175.968C170.566 177.333 169.552 178.389 168.23 179.136C166.907 179.883 165.339 180.256 163.526 180.256ZM163.526 178.048C164.806 178.048 165.915 177.771 166.854 177.216C167.792 176.661 168.518 175.861 169.03 174.816C169.542 173.771 169.798 172.512 169.798 171.04C169.798 169.568 169.542 168.309 169.03 167.264C168.518 166.219 167.792 165.419 166.854 164.864C165.915 164.309 164.806 164.032 163.526 164.032C162.246 164.032 161.136 164.309 160.198 164.864C159.259 165.419 158.534 166.219 158.022 167.264C157.51 168.309 157.254 169.568 157.254 171.04C157.254 172.512 157.51 173.771 158.022 174.816C158.534 175.861 159.259 176.661 160.198 177.216C161.136 177.771 162.246 178.048 163.526 178.048ZM210.114 162.08V173.216C210.114 175.541 209.463 177.301 208.162 178.496C206.86 179.669 204.983 180.256 202.53 180.256C200.098 180.256 198.231 179.669 196.93 178.496C195.628 177.301 194.978 175.541 194.978 173.216V162.08H197.538V172.864C197.538 174.613 197.943 175.915 198.754 176.768C199.586 177.621 200.844 178.048 202.53 178.048C204.236 178.048 205.495 177.621 206.306 176.768C207.138 175.915 207.554 174.613 207.554 172.864V162.08H210.114ZM278.155 175.168C277.877 176.277 277.365 177.216 276.619 177.984C275.872 178.731 274.955 179.296 273.867 179.68C272.779 180.064 271.573 180.256 270.251 180.256C268.523 180.256 267.008 179.883 265.707 179.136C264.405 178.389 263.392 177.333 262.667 175.968C261.941 174.581 261.579 172.939 261.579 171.04C261.579 169.141 261.941 167.509 262.667 166.144C263.392 164.757 264.405 163.691 265.707 162.944C267.029 162.197 268.576 161.824 270.347 161.824C271.627 161.824 272.768 162.005 273.771 162.368C274.773 162.731 275.616 163.275 276.299 164C277.003 164.704 277.515 165.6 277.835 166.688L275.403 167.776C275.083 166.496 274.517 165.557 273.707 164.96C272.917 164.341 271.776 164.032 270.283 164.032C269.067 164.032 267.989 164.309 267.051 164.864C266.133 165.419 265.419 166.219 264.907 167.264C264.395 168.309 264.139 169.568 264.139 171.04C264.139 172.512 264.395 173.771 264.907 174.816C265.44 175.861 266.155 176.661 267.051 177.216C267.968 177.771 269.003 178.048 270.155 178.048C271.819 178.048 273.099 177.739 273.995 177.12C274.891 176.501 275.456 175.573 275.691 174.336L278.155 175.168ZM297.971 180L305.235 162.08H308.275L315.539 180H312.819L310.899 175.104H302.611L300.691 180H297.971ZM303.475 172.896H310.035L306.771 164.32L303.475 172.896ZM352.33 162.08V180H348.906L341.098 167.456L339.562 164.736H339.53L339.658 166.976V180H337.194V162.08H340.618L348.426 174.656L349.962 177.344H349.994L349.866 175.104V162.08H352.33ZM420.585 175.168C420.307 176.277 419.795 177.216 419.049 177.984C418.302 178.731 417.385 179.296 416.297 179.68C415.209 180.064 414.003 180.256 412.681 180.256C410.953 180.256 409.438 179.883 408.137 179.136C406.835 178.389 405.822 177.333 405.097 175.968C404.371 174.581 404.009 172.939 404.009 171.04C404.009 169.141 404.371 167.509 405.097 166.144C405.822 164.757 406.835 163.691 408.137 162.944C409.459 162.197 411.006 161.824 412.777 161.824C414.057 161.824 415.198 162.005 416.201 162.368C417.203 162.731 418.046 163.275 418.729 164C419.433 164.704 419.945 165.6 420.265 166.688L417.833 167.776C417.513 166.496 416.947 165.557 416.137 164.96C415.347 164.341 414.206 164.032 412.713 164.032C411.497 164.032 410.419 164.309 409.481 164.864C408.563 165.419 407.849 166.219 407.337 167.264C406.825 168.309 406.569 169.568 406.569 171.04C406.569 172.512 406.825 173.771 407.337 174.816C407.87 175.861 408.585 176.661 409.481 177.216C410.398 177.771 411.433 178.048 412.585 178.048C414.249 178.048 415.529 177.739 416.425 177.12C417.321 176.501 417.886 175.573 418.121 174.336L420.585 175.168ZM442.673 180V162.08H450.129C452.092 162.08 453.66 162.56 454.833 163.52C456.006 164.459 456.593 165.749 456.593 167.392C456.593 169.056 456.006 170.357 454.833 171.296C453.66 172.235 452.092 172.704 450.129 172.704H445.233V180H442.673ZM454.737 180L449.361 172.128L451.537 171.04L457.681 180H454.737ZM445.233 170.528H450.065C451.388 170.528 452.38 170.272 453.041 169.76C453.702 169.248 454.033 168.469 454.033 167.424C454.033 166.379 453.702 165.6 453.041 165.088C452.38 164.555 451.388 164.288 450.065 164.288H445.233V170.528ZM479.812 180V162.08H493.252V164.288H482.372V169.824H490.884V172.032H482.372V177.792H493.668V180H479.812ZM513.772 180L521.036 162.08H524.076L531.34 180H528.62L526.7 175.104H518.412L516.492 180H513.772ZM519.276 172.896H525.836L522.572 164.32L519.276 172.896ZM557.693 163.072V180H555.133V163.072H557.693ZM564.253 162.08V164.288H548.541V162.08H564.253ZM586.134 180V162.08H599.574V164.288H588.694V169.824H597.206V172.032H588.694V177.792H599.99V180H586.134Z" fill="#141414"/>
</svg>
