<svg width="500" height="500" viewBox="0 0 500 500" fill="none" xmlns="http://www.w3.org/2000/svg">
<path d="M278.125 109.375H250V137.5H278.125V109.375Z" fill="#A879EF"/>
<path d="M278.125 81.25H250V109.375H278.125V81.25Z" fill="#A879EF"/>
<path d="M446.875 221.875H418.75V250H446.875V221.875Z" fill="#A879EF"/>
<path d="M109.375 221.875H81.25V250H109.375V221.875Z" fill="#945EE6"/>
<path d="M221.875 81.25V53.125C206.342 53.125 193.75 65.717 193.75 81.25H221.875Z" fill="#BB93F7"/>
<path d="M250 53.125H221.875V81.25H250V53.125Z" fill="#BB93F7"/>
<path d="M250 81.25H278.125C278.125 65.717 265.533 53.125 250 53.125V81.25Z" fill="#BB93F7"/>
<path d="M334.375 81.25V53.125C318.842 53.125 306.25 65.717 306.25 81.25H334.375Z" fill="#BB93F7"/>
<path d="M334.375 81.25H362.5C362.5 65.717 349.908 53.125 334.375 53.125V81.25Z" fill="#BB93F7"/>
<path d="M165.625 109.375V81.25C150.092 81.25 137.5 93.842 137.5 109.375H165.625Z" fill="#BB93F7"/>
<path d="M193.75 81.25H165.625V109.375H193.75V81.25Z" fill="#BB93F7"/>
<path d="M221.875 81.25H193.75V109.375H221.875V81.25Z" fill="#BB93F7"/>
<path d="M306.25 81.25H278.125V109.375H306.25V81.25Z" fill="#BB93F7"/>
<path d="M278.125 81.25H250V109.375H278.125V81.25Z" fill="#BB93F7"/>
<path d="M250 81.25H221.875V109.375H250V81.25Z" fill="#BB93F7"/>
<path d="M334.375 81.25H306.25V109.375H334.375V81.25Z" fill="#BB93F7"/>
<path d="M362.5 81.25H334.375V109.375H362.5V81.25Z" fill="#BB93F7"/>
<path d="M368.625 81.25H362.5V109.375H390.625V103.25C390.625 91.0997 380.775 81.25 368.625 81.25Z" fill="#BB93F7"/>
<path d="M165.625 109.375H137.5V137.5H165.625V109.375Z" fill="#BB93F7"/>
<path d="M193.75 109.375H165.625V137.5H193.75V109.375Z" fill="#A879EF"/>
<path d="M250 109.375H221.875V137.5H250V109.375Z" fill="#A879EF"/>
<path d="M221.875 109.375H193.75V137.5H221.875V109.375Z" fill="#BB93F7"/>
<path d="M306.25 109.375H278.125V137.5H306.25V109.375Z" fill="#BB93F7"/>
<path d="M334.375 109.375H306.25V137.5H334.375V109.375Z" fill="#BB93F7"/>
<path d="M362.5 109.375H334.375V137.5H362.5V109.375Z" fill="#BB93F7"/>
<path d="M390.625 109.375H362.5V137.5H390.625V109.375Z" fill="#BB93F7"/>
<path d="M418.75 109.375H390.625V137.5H418.75V109.375Z" fill="#BB93F7"/>
<path d="M423.875 109.375H418.75V137.5H446.875V132.375C446.875 119.672 436.578 109.375 423.875 109.375Z" fill="#BB93F7"/>
<path d="M165.625 137.5H137.5V151.562C137.5 159.329 143.796 165.625 151.562 165.625C159.329 165.625 165.625 159.329 165.625 151.562V137.5Z" fill="#BB93F7"/>
<path d="M221.875 137.5H193.75V165.625H221.875V137.5Z" fill="#BB93F7"/>
<path d="M250 137.5H221.875V165.625H250V137.5Z" fill="#784C32"/>
<path d="M278.125 137.5H250V165.625H278.125V137.5Z" fill="#945EE6"/>
<path d="M306.25 137.5H278.125V165.625H306.25V137.5Z" fill="#BB93F7"/>
<path d="M334.375 137.5H306.25V165.625H334.375V137.5Z" fill="#945EE6"/>
<path d="M362.5 137.5H334.375V165.625H362.5V137.5Z" fill="#BB93F7"/>
<path d="M390.625 137.5H362.5V165.625H390.625V137.5Z" fill="#945EE6"/>
<path d="M418.75 137.5H390.625V165.625H418.75V137.5Z" fill="#945EE6"/>
<path d="M446.875 137.5H418.75V165.625H446.875V137.5Z" fill="#BB93F7"/>
<path d="M81.25 193.75V165.625C65.717 165.625 53.125 178.217 53.125 193.75H81.25Z" fill="#BB93F7"/>
<path d="M109.375 165.625H81.25V193.75H109.375V165.625Z" fill="#BB93F7"/>
<path d="M221.875 165.625H193.75V193.75H221.875V165.625Z" fill="#BB93F7"/>
<path d="M250 165.625H221.875V193.75H250V165.625Z" fill="#945EE6"/>
<path d="M278.125 165.625H250V193.75H278.125V165.625Z" fill="#845137"/>
<path d="M250 165.625H221.875C221.875 181.158 234.467 193.75 250 193.75V165.625Z" fill="#845137"/>
<path d="M306.25 165.625H278.125V193.75H306.25V165.625Z" fill="#BB93F7"/>
<path d="M334.375 137.5H306.25V165.625C306.25 165.625 306.25 151.562 320.312 151.562C334.375 151.562 334.375 165.625 334.375 165.625V137.5Z" fill="#BB93F7"/>
<path d="M193.75 109.375H165.625V137.5C165.625 137.5 165.625 123.438 179.688 123.438C193.75 123.438 193.75 137.5 193.75 137.5V109.375Z" fill="#BB93F7"/>
<path d="M334.375 165.625H306.25V193.75H334.375V165.625Z" fill="#845137"/>
<path d="M362.5 165.625H334.375V193.75H362.5V165.625Z" fill="#BB93F7"/>
<path d="M390.625 165.625H362.5V193.75C378.033 193.75 390.625 181.158 390.625 165.625Z" fill="#845137"/>
<path d="M446.875 165.625H418.75V193.75H446.875V165.625Z" fill="#BB93F7"/>
<path d="M53.125 221.875V193.75C37.592 193.75 25 206.342 25 221.875H53.125Z" fill="#BB93F7"/>
<path d="M81.25 193.75H53.125V221.875H81.25V193.75Z" fill="#BB93F7"/>
<path d="M109.375 193.75H81.25V221.875H109.375V193.75Z" fill="#A879EF"/>
<path d="M137.5 193.75H109.375V221.875H137.5V193.75Z" fill="#A879EF"/>
<path d="M137.5 221.875H165.625C165.625 206.342 153.033 193.75 137.5 193.75V221.875Z" fill="#BB93F7"/>
<path d="M109.375 193.75H137.5C137.5 178.217 124.908 165.625 109.375 165.625V193.75Z" fill="#BB93F7"/>
<path d="M221.875 193.75H193.75V221.875H221.875V193.75Z" fill="#BB93F7"/>
<path d="M278.125 193.75H250V221.875H278.125V193.75Z" fill="#8F563B"/>
<path d="M306.25 193.75H278.125V221.875H306.25V193.75Z" fill="#BB93F7"/>
<path d="M362.5 193.75H334.375V207.812C334.375 215.579 340.671 221.875 348.438 221.875C356.204 221.875 362.5 215.579 362.5 207.812V193.75Z" fill="#BB93F7"/>
<path d="M390.625 221.875V193.75C375.092 193.75 362.5 206.342 362.5 221.875H390.625Z" fill="#A879EF"/>
<path d="M390.625 221.875H418.75C418.75 206.342 406.158 193.75 390.625 193.75V221.875Z" fill="#A879EF"/>
<path d="M446.875 193.75H418.75V221.875H446.875V193.75Z" fill="#BB93F7"/>
<path d="M53.125 221.875H25V250H53.125V221.875Z" fill="#BB93F7"/>
<path d="M81.25 221.875H53.125C53.125 237.408 65.717 250 81.25 250V221.875Z" fill="#945EE6"/>
<path d="M109.375 221.875H81.25C81.25 237.408 93.842 250 109.375 250V221.875Z" fill="#845137"/>
<path d="M137.5 221.875H109.375V250H137.5V221.875Z" fill="#845137"/>
<path d="M165.625 221.875H137.5V250H165.625V221.875Z" fill="#A879EF"/>
<path d="M193.75 221.875H165.625V250H193.75V221.875Z" fill="#8F563B"/>
<path d="M221.875 221.875H193.75V250H221.875V221.875Z" fill="#BB93F7"/>
<path d="M250 221.875H221.875V250H250V221.875Z" fill="#8F563B"/>
<path d="M278.125 221.875H250V250H278.125V221.875Z" fill="#8F563B"/>
<path d="M306.25 221.875H278.125V250H306.25V221.875Z" fill="#BB93F7"/>
<path d="M362.5 250V221.875C346.967 221.875 334.375 234.467 334.375 250H362.5Z" fill="#A879EF"/>
<path d="M390.625 221.875H362.5V250H390.625V221.875Z" fill="#A879EF"/>
<path d="M418.75 221.875H390.625V250H418.75V221.875Z" fill="#A879EF"/>
<path d="M418.75 250H390.625V278.125H418.75V250Z" fill="#A879EF"/>
<path d="M446.875 221.875H418.75V235.938C418.75 243.704 425.046 250 432.812 250C440.579 250 446.875 243.704 446.875 235.938V221.875Z" fill="#BB93F7"/>
<path d="M446.875 250H475C475 234.467 462.408 221.875 446.875 221.875V250Z" fill="#A879EF"/>
<path d="M53.125 250H25V278.125H53.125V250Z" fill="#BB93F7"/>
<path d="M109.375 250H81.25V278.125H109.375V250Z" fill="#945EE6"/>
<path d="M165.625 250H137.5V278.125H165.625V250Z" fill="#A879EF"/>
<path d="M221.875 250H193.75V278.125H221.875V250Z" fill="#BB93F7"/>
<path d="M278.125 250H250C250 265.533 262.592 278.125 278.125 278.125V250Z" fill="#845137"/>
<path d="M306.25 250H278.125V278.125H306.25V250Z" fill="#BB93F7"/>
<path d="M334.375 250H306.25V278.125H334.375V250Z" fill="#975E3F"/>
<path d="M362.5 250H334.375V278.125H362.5V250Z" fill="#A879EF"/>
<path d="M390.625 250H362.5V278.125H367.625C380.328 278.125 390.625 267.828 390.625 255.125V250Z" fill="#845137"/>
<path fill-rule="evenodd" clip-rule="evenodd" d="M109.375 221.875C93.842 221.875 81.25 209.283 81.25 193.75V221.875H109.375Z" fill="#8F563B"/>
<path fill-rule="evenodd" clip-rule="evenodd" d="M278.125 165.625C262.592 165.625 250 153.033 250 137.5V165.625H278.125Z" fill="#784C32"/>
<path fill-rule="evenodd" clip-rule="evenodd" d="M250 137.5C265.533 137.5 278.125 150.092 278.125 165.625V137.5H250Z" fill="#A879EF"/>
<path fill-rule="evenodd" clip-rule="evenodd" d="M81.25 221.875C81.25 206.342 93.842 193.75 109.375 193.75H81.25V221.875Z" fill="#BB93F7"/>
<path fill-rule="evenodd" clip-rule="evenodd" d="M221.875 137.5C221.875 121.967 234.467 109.375 250 109.375H221.875V137.5Z" fill="#BB93F7"/>
<path fill-rule="evenodd" clip-rule="evenodd" d="M390.625 137.5C406.158 137.5 418.75 150.092 418.75 165.625V137.5H390.625Z" fill="#BB93F7"/>
<path fill-rule="evenodd" clip-rule="evenodd" d="M109.375 193.75C124.908 193.75 137.5 206.342 137.5 221.875V193.75H109.375Z" fill="#BB93F7"/>
<path fill-rule="evenodd" clip-rule="evenodd" d="M250 109.375C265.533 109.375 278.125 121.967 278.125 137.5V109.375H250Z" fill="#BB93F7"/>
<path d="M446.875 250H418.75V278.125H446.875V250Z" fill="#A879EF"/>
<path d="M475 250H446.875V278.125H475V250Z" fill="#A879EF"/>
<path d="M53.125 278.125H25V306.25H53.125V278.125Z" fill="#A879EF"/>
<path d="M109.375 278.125H81.25V306.25H109.375V278.125Z" fill="#945EE6"/>
<path d="M165.625 278.125H137.5V292.188C137.5 299.954 143.796 306.25 151.562 306.25C159.329 306.25 165.625 299.954 165.625 292.188V278.125Z" fill="#A879EF"/>
<path d="M221.875 278.125H193.75V292.188C193.75 299.954 200.046 306.25 207.812 306.25C215.579 306.25 221.875 299.954 221.875 292.188V278.125Z" fill="#BB93F7"/>
<path d="M306.25 278.125H278.125V306.25H306.25V278.125Z" fill="#BB93F7"/>
<path d="M334.375 278.125H306.25V306.25H334.375V278.125Z" fill="#8F563B"/>
<path d="M362.5 278.125H334.375V306.25H362.5V278.125Z" fill="#A879EF"/>
<path d="M418.75 278.125H390.625V306.25H418.75V278.125Z" fill="#A879EF"/>
<path d="M475 278.125H446.875V306.25H475V278.125Z" fill="#A879EF"/>
<path d="M53.125 306.25H25V334.375H53.125V306.25Z" fill="#A879EF"/>
<path d="M109.375 306.25H81.25V320.312C81.25 328.079 87.546 334.375 95.3125 334.375C103.079 334.375 109.375 328.079 109.375 320.312V306.25Z" fill="#945EE6"/>
<path d="M250 334.375V306.25C234.467 306.25 221.875 318.842 221.875 334.375H250Z" fill="#975E3F"/>
<path d="M278.125 306.25H250V334.375H278.125V306.25Z" fill="#8F563B"/>
<path d="M306.25 306.25H278.125V334.375H306.25V306.25Z" fill="#BB93F7"/>
<path d="M334.375 306.25H306.25V334.375H334.375V306.25Z" fill="#8F563B"/>
<path d="M362.5 306.25H334.375V334.375H362.5V306.25Z" fill="#A879EF"/>
<path d="M418.75 306.25H390.625V320.312C390.625 328.079 396.921 334.375 404.688 334.375C412.454 334.375 418.75 328.079 418.75 320.312V306.25Z" fill="#A879EF"/>
<path d="M475 306.25H446.875V334.375H475V306.25Z" fill="#A879EF"/>
<path d="M53.125 334.375H25V362.5H53.125V334.375Z" fill="#A879EF"/>
<path d="M193.75 362.5V334.375C178.217 334.375 165.625 346.967 165.625 362.5H193.75Z" fill="#975E3F"/>
<path d="M221.875 334.375H193.75V362.5H221.875V334.375Z" fill="#975E3F"/>
<path d="M250 334.375H221.875V362.5H250V334.375Z" fill="#8F563B"/>
<path d="M278.125 334.375H250V362.5H278.125V334.375Z" fill="#8F563B"/>
<path d="M306.25 334.375H278.125V362.5H306.25V334.375Z" fill="#BB93F7"/>
<path d="M334.375 334.375H306.25V362.5C321.783 362.5 334.375 349.908 334.375 334.375Z" fill="#845137"/>
<path d="M362.5 334.375H334.375V362.5H362.5V334.375Z" fill="#A879EF"/>
<path d="M475 334.375H446.875V362.5H475V334.375Z" fill="#A879EF"/>
<path d="M53.125 362.5H25V376.562C25 384.329 31.296 390.625 39.0625 390.625C46.829 390.625 53.125 384.329 53.125 376.562V362.5Z" fill="#A879EF"/>
<path d="M165.625 390.625V362.5C150.092 362.5 137.5 375.092 137.5 390.625H165.625Z" fill="#8F563B"/>
<path d="M193.75 362.5H165.625V390.625H193.75V362.5Z" fill="#8F563B"/>
<path d="M221.875 362.5H193.75V390.625H221.875V362.5Z" fill="#8F563B"/>
<path d="M250 362.5H221.875V390.625H250V362.5Z" fill="#8F563B"/>
<path d="M278.125 362.5H250V390.625H264.125C271.857 390.625 278.125 384.357 278.125 376.625V362.5Z" fill="#8F563B"/>
<path d="M306.25 362.5H278.125V390.625H306.25V362.5Z" fill="#BB93F7"/>
<path d="M362.5 362.5H334.375V376.562C334.375 384.329 340.671 390.625 348.438 390.625C356.204 390.625 362.5 384.329 362.5 376.562V362.5Z" fill="#A879EF"/>
<path d="M475 362.5H446.875V376.562C446.875 384.329 453.171 390.625 460.938 390.625C468.704 390.625 475 384.329 475 376.562V362.5Z" fill="#A879EF"/>
<path d="M165.625 390.625H137.5V418.75H165.625V390.625Z" fill="#975E3F"/>
<path d="M193.75 390.625H165.625V418.75H193.75V390.625Z" fill="#8F563B"/>
<path d="M221.875 390.625H193.75V418.75H221.875V390.625Z" fill="#8F563B"/>
<path d="M250 390.625H221.875V418.75H250V390.625Z" fill="#845137"/>
<path d="M306.25 390.625H278.125V404.688C278.125 412.454 284.421 418.75 292.188 418.75C299.954 418.75 306.25 412.454 306.25 404.688V390.625Z" fill="#BB93F7"/>
<path d="M137.5 446.875V418.75C121.967 418.75 109.375 431.342 109.375 446.875H137.5Z" fill="#975E3F"/>
<path d="M165.625 418.75H137.5V446.875H165.625V418.75Z" fill="#975E3F"/>
<path d="M193.75 418.75H165.625V446.875H193.75V418.75Z" fill="#8F563B"/>
<path d="M221.875 418.75H193.75V446.875H221.875V418.75Z" fill="#845137"/>
<path d="M250 418.75H221.875V446.875H250V418.75Z" fill="#845137"/>
<path d="M258.125 418.75H250V446.875H278.125V438.75C278.125 427.704 269.171 418.75 258.125 418.75Z" fill="#845137"/>
<path d="M53.1263 221.881L53.1239 250.006C68.6569 250.007 81.25 237.416 81.2513 221.883L53.1263 221.881Z" fill="#BB93F7"/>
<path d="M390.625 250H362.5V278.125C362.5 278.125 362.5 264.062 376.562 264.062C390.625 264.062 390.625 278.125 390.625 278.125V250Z" fill="#A879EF"/>
<path d="M446.875 278.125H418.75V306.25C418.75 306.25 418.75 292.188 432.812 292.188C446.875 292.188 446.875 306.25 446.875 306.25V278.125Z" fill="#A879EF"/>
<path fill-rule="evenodd" clip-rule="evenodd" d="M25 306.25C25 290.717 37.592 278.125 53.125 278.125H25V306.25Z" fill="#BB93F7"/>
<path fill-rule="evenodd" clip-rule="evenodd" d="M362.5 165.625C362.5 150.092 375.092 137.5 390.625 137.5H362.5V165.625Z" fill="#BB93F7"/>
</svg>
